<svg width="200" height="56" viewBox="0 0 200 56" fill="none" xmlns="http://www.w3.org/2000/svg">
<path d="M14.5199 13.1792C18.4575 13.1792 21.8398 14.6053 24.6668 17.4576C27.5065 20.3098 28.9263 23.7867 28.9262 27.8884C28.9262 31.9522 27.5253 35.3913 24.7236 38.2057C21.9344 41.02 18.5458 42.4271 14.5578 42.4271C10.3804 42.4271 6.90974 40.9821 4.14585 38.0921C1.9282 35.7805 0.514993 32.8155 0.115994 29.6372C-0.283005 26.4588 0.353472 23.2366 1.93095 20.4486C3.21066 18.2421 5.04654 16.4097 7.25547 15.1342C9.46439 13.8586 11.9691 13.1846 14.5199 13.1792V13.1792ZM14.4631 18.3662C11.8885 18.3662 9.72411 19.2623 7.96987 21.0544C6.21563 22.8465 5.33851 25.1245 5.3385 27.8884C5.3385 30.9678 6.44279 33.4036 8.65137 35.1957C10.3082 36.5753 12.4019 37.3201 14.5578 37.2969C15.7583 37.3145 16.9493 37.0812 18.0544 36.6117C19.1595 36.1423 20.1544 35.4472 20.9753 34.571C22.7422 32.7536 23.6256 30.5135 23.6256 27.8505C23.6256 25.2002 22.7358 22.9601 20.9563 21.1301C20.1276 20.2408 19.1215 19.5352 18.003 19.0591C16.8845 18.5831 15.6786 18.347 14.4631 18.3662Z" fill="white"/>
<path d="M34.5156 42.1999V13.1792H49.6869V18.5651H40.0397V24.1285H41.2431C43.6896 24.1285 45.6888 24.3982 47.2407 24.9374C48.8298 25.5055 50.1883 26.5799 51.1073 27.9953C52.1463 29.4816 52.6659 31.2439 52.6659 33.2825C52.6659 35.308 52.2779 36.9257 51.5019 38.1358C50.6894 39.3664 49.5845 40.3764 48.2861 41.0754C46.9316 41.8251 45.0508 42.1999 42.6439 42.1999L34.5156 42.1999ZM40.0397 29.0607V36.9324H41.4207C43.9459 36.9324 45.544 36.6036 46.2148 35.9459C46.8855 35.2884 47.2209 34.4005 47.2209 33.2825C47.2209 30.468 45.2085 29.0607 41.1839 29.0607H40.0397Z" fill="white"/>
<path d="M76.4523 42.4272L68.6261 21.6405L60.6652 42.4272H54.9541L65.857 14.1411H71.3182L82.2018 42.4272L76.4523 42.4272Z" fill="#31D6C9"/>
<path d="M107.962 13.271V42.4272H102.412V24.1724L91.5305 42.4272H86.6943V13.271H92.244V32.1204L103.284 13.271H107.962Z" fill="white"/>
<path d="M114.623 13.1401H120.258V23.2144L128.201 13.1401H134.911L124.678 26.2009L135.907 42.4272H129.297L120.258 29.4262V42.4272H114.623L114.623 13.1401Z" fill="white"/>
<path d="M142.081 4.32373V51.2432" stroke="white" stroke-width="5" stroke-miterlimit="10"/>
<path d="M175.005 1.44873L151.431 14.7886V42.0433L175.005 55.5666L198.58 42.0433V14.7886L175.005 1.44873Z" fill="white"/>
<path d="M150.511 42.5895H200L175.005 0L150.511 42.5895Z" fill="#31D6C9"/>
</svg>
