<svg width="50" height="50" viewBox="0 0 50 50" fill="none" xmlns="http://www.w3.org/2000/svg">
<path d="M38.3809 16.0835C38.5696 15.4584 38.3809 15 37.489 15H34.5341C33.7822 15 33.4386 15.3966 33.25 15.8321C33.25 15.8321 31.7476 19.4873 29.6187 21.8573C28.9316 22.547 28.6176 22.7647 28.243 22.7647C28.0557 22.7647 27.7836 22.547 27.7836 21.9219V16.0835C27.7836 15.3334 27.5666 15 26.9401 15H22.2969C21.828 15 21.5451 15.3468 21.5451 15.6775C21.5451 16.3873 22.6095 16.5513 22.7186 18.5517V22.8911C22.7186 23.8415 22.5475 24.015 22.1703 24.015C21.1691 24.015 18.733 20.3463 17.2872 16.1467C17.0056 15.3307 16.7213 15.0013 15.9668 15.0013H13.0133C12.1684 15.0013 12 15.3979 12 15.8335C12 16.6159 13.0011 20.4875 16.6634 25.608C19.1049 29.1045 22.5421 31 25.6735 31C27.5505 31 27.7822 30.5792 27.7822 29.8533V27.2104C27.7822 26.3688 27.9614 26.1995 28.5556 26.1995C28.9922 26.1995 29.744 26.4199 31.497 28.1044C33.4993 30.102 33.8307 30.9987 34.9558 30.9987H37.9093C38.7528 30.9987 39.1746 30.5779 38.932 29.7471C38.6666 28.9203 37.7099 27.7172 36.4407 26.2936C35.7508 25.4816 34.72 24.6078 34.4061 24.1709C33.9682 23.6076 34.0948 23.3589 34.4061 22.8588C34.4074 22.8602 38.0064 17.8029 38.3809 16.0835Z" fill="#31D6C9"/>
<path d="M1 1H49V49H1V1Z" stroke="#31D6C9" stroke-width="2"/>
</svg>
