<svg width="50" height="50" viewBox="0 0 50 50" fill="none" xmlns="http://www.w3.org/2000/svg">
<path d="M1 1H49V49H1V1Z" stroke="#31D6C9" stroke-width="2"/>
<path d="M39.6398 28.7812C38.9828 28.4447 35.71 26.8463 35.1013 26.6299C34.4925 26.4016 34.0465 26.2934 33.6065 26.9665C33.1605 27.6335 31.8948 29.1178 31.497 29.5684C31.1112 30.0131 30.7195 30.0672 30.0625 29.7367C26.1569 27.7897 23.5953 26.2634 21.0217 21.8586C20.3406 20.6868 21.7028 20.771 22.9745 18.2411C23.1915 17.7964 23.083 17.4178 22.9142 17.0813C22.7455 16.7448 21.4195 13.4878 20.865 12.1598C20.3286 10.8678 19.7741 11.0481 19.3702 11.024C18.9845 11 18.5445 11 18.0985 11C17.6525 11 16.9353 11.1683 16.3265 11.8233C15.7178 12.4903 14 14.0947 14 17.3517C14 20.6087 16.3807 23.7636 16.7062 24.2082C17.0437 24.6529 21.3894 31.3351 28.0615 34.2136C32.2805 36.0283 33.932 36.1846 36.0415 35.8721C37.3253 35.6798 39.9712 34.2737 40.5197 32.7173C41.0682 31.1669 41.0682 29.8389 40.9055 29.5624C40.7427 29.268 40.2967 29.0997 39.6398 28.7812Z" fill="#31D6C9"/>
</svg>
